<svg id="backend" xmlns="http://www.w3.org/2000/svg" width="39.6" height="48" viewBox="0 0 39.6 48">
  <path id="mentor" d="M37.2,36H4.8a4.737,4.737,0,0,0-2.4.668V4.8A2.4,2.4,0,0,1,4.8,2.4H37.2Zm0,4.8H8.4v2.4H37.2v2.4H4.8a2.433,2.433,0,0,1-2.4-2.412V40.812A2.41,2.41,0,0,1,4.8,38.4H37.2ZM39.6,0V48H4.8A4.775,4.775,0,0,1,.474,45.244,4.735,4.735,0,0,1,0,43.2H0V4.8A4.8,4.8,0,0,1,4.8,0H39.6ZM19.165,9.942l-6,3.6A2.4,2.4,0,0,0,12,15.6v7.2a2.4,2.4,0,0,0,1.165,2.058l6,3.6a2.4,2.4,0,0,0,2.47,0l6-3.6A2.4,2.4,0,0,0,28.8,22.8V15.6a2.4,2.4,0,0,0-1.165-2.058l-6-3.6A2.4,2.4,0,0,0,19.165,9.942ZM20.4,12l6,3.6v7.2l-6,3.6-6-3.6V15.6Z" fill="#10cc8c" fill-rule="evenodd"/>
</svg>
