<svg id="instagram-logo" xmlns="http://www.w3.org/2000/svg" width="48" height="48" viewBox="0 0 48 48">
  <path id="Path_2" data-name="Path 2" d="M24,4.324c6.408,0,7.167.024,9.7.14a13.285,13.285,0,0,1,4.457.826,7.437,7.437,0,0,1,2.759,1.8,7.437,7.437,0,0,1,1.8,2.76,13.282,13.282,0,0,1,.826,4.456c.115,2.531.14,3.29.14,9.7s-.024,7.167-.14,9.7a13.282,13.282,0,0,1-.826,4.457,7.947,7.947,0,0,1-4.555,4.555,13.279,13.279,0,0,1-4.457.826c-2.53.116-3.289.14-9.7.14s-7.168-.024-9.7-.14a13.276,13.276,0,0,1-4.456-.826,7.433,7.433,0,0,1-2.76-1.8,7.436,7.436,0,0,1-1.8-2.76A13.281,13.281,0,0,1,4.464,33.7c-.115-2.531-.14-3.29-.14-9.7s.024-7.167.14-9.7a13.281,13.281,0,0,1,.826-4.457,7.436,7.436,0,0,1,1.8-2.76,7.437,7.437,0,0,1,2.76-1.8A13.283,13.283,0,0,1,14.3,4.464c2.531-.115,3.29-.14,9.7-.14M24,0c-6.518,0-7.335.028-9.9.144A17.616,17.616,0,0,0,8.279,1.26,11.764,11.764,0,0,0,4.028,4.028,11.764,11.764,0,0,0,1.26,8.279,17.616,17.616,0,0,0,.144,14.1C.028,16.665,0,17.482,0,24s.028,7.335.144,9.9A17.615,17.615,0,0,0,1.26,39.721a11.765,11.765,0,0,0,2.768,4.251A11.763,11.763,0,0,0,8.279,46.74,17.614,17.614,0,0,0,14.1,47.856c2.56.117,3.377.144,9.9.144s7.335-.028,9.9-.144a17.614,17.614,0,0,0,5.826-1.116,12.272,12.272,0,0,0,7.019-7.019A17.618,17.618,0,0,0,47.856,33.9c.117-2.56.144-3.377.144-9.9s-.028-7.335-.144-9.9A17.619,17.619,0,0,0,46.74,8.279a11.764,11.764,0,0,0-2.768-4.251A11.764,11.764,0,0,0,39.721,1.26,17.616,17.616,0,0,0,33.9.144C31.335.028,30.518,0,24,0Zm0,11.676A12.324,12.324,0,1,0,36.324,24,12.324,12.324,0,0,0,24,11.676ZM24,32a8,8,0,1,1,8-8A8,8,0,0,1,24,32ZM39.691,11.189a2.88,2.88,0,1,1-2.88-2.88A2.88,2.88,0,0,1,39.691,11.189Z" transform="translate(0 0)"/>
</svg>
