<svg xmlns="http://www.w3.org/2000/svg" xmlns:xlink="http://www.w3.org/1999/xlink" width="131.234" height="131.233" viewBox="0 0 131.234 131.233">
  <defs>
    <linearGradient id="linear-gradient" x1="-0.096" y1="1.251" x2="-0.04" y2="1.225" gradientUnits="objectBoundingBox">
      <stop offset="0" stop-color="#fff" stop-opacity="0.2"/>
      <stop offset="1" stop-color="#fff" stop-opacity="0"/>
    </linearGradient>
  </defs>
  <g id="mysql-logo" transform="translate(0 -0.002)">
    <g id="Group_3" data-name="Group 3" transform="translate(0 0.002)">
      <path id="Path_20" data-name="Path 20" d="M130.732,126.921c-2.248-3.169-5.89-5.8-9.745-8.584-4.152-2.993-8.416-6.072-10.552-9.649,8.1-1.693,18.356-4.761,18.85-4.907a2.736,2.736,0,0,0,1.308-4.379A83.494,83.494,0,0,0,97.616,77.064c-.884-1.77-1.869-4.04-3.014-6.664C86.533,51.887,69.782,13.466,25.586,8.3,22.064,5.919,12.834,0,8.2,0,2.454,0,0,2.456,0,8.2,0,11,2.277,14.273,5.991,19.38c1.815,2.5,4.854,6.675,4.945,7.962,0,4.475,5.19,18.962,10.41,25.159-.149.318-.3.63-.446.94-2.312,4.873-4.5,9.475-4.5,20.38,0,14.359,6.878,21.872,13.67,21.872,4.216,0,6.314-4.785,7.324-10.386,3.746,7.6,9.866,17.5,18.439,23.557a2.736,2.736,0,0,0,3.156-4.47c-13.6-9.6-20.78-31.2-20.852-31.423a2.734,2.734,0,0,0-5.332.849c0,7.508-1.431,15.507-2.734,16.4-3.943,0-8.2-6.272-8.2-16.4,0-9.673,1.751-13.363,3.968-18.036.414-.873.841-1.77,1.266-2.726a2.738,2.738,0,0,0-.713-3.183c-4.213-3.628-9.988-18.9-9.988-22.534,0-2.8-2.277-6.069-5.991-11.176C8.6,13.669,5.559,9.491,5.468,8.2c0-2.734,0-2.734,2.734-2.734,2.216,0,9.438,4.007,14.858,7.724a2.73,2.73,0,0,0,1.252.462C65.865,18.162,81.3,53.566,89.59,72.587c1.4,3.2,2.6,5.973,3.692,8a2.731,2.731,0,0,0,1.53,1.295c13.646,4.624,23.821,13.267,28.59,17.907-4.656,1.306-12.092,3.292-17.224,4.146a2.734,2.734,0,0,0-2.2,3.359c1.679,6.728,8.125,11.379,13.809,15.48,3.479,2.51,6.763,4.881,8.482,7.31a2.735,2.735,0,0,0,4.464-3.161Z" transform="translate(0 -0.002)" fill="#d1d5db"/>
      <path id="Path_21" data-name="Path 21" d="M96,77.4a2.733,2.733,0,0,0,2.734,2.734,2.736,2.736,0,0,1,2.734,2.734,2.734,2.734,0,0,0,5.468,0,8.211,8.211,0,0,0-8.2-8.2A2.732,2.732,0,0,0,96,77.4Z" transform="translate(-71.394 -55.531)" fill="#d1d5db"/>
    </g>
    <path id="Path_22" data-name="Path 22" d="M130.732,126.921c-2.248-3.169-5.89-5.8-9.745-8.584-4.152-2.993-8.416-6.072-10.552-9.649,8.1-1.693,18.356-4.761,18.85-4.907a2.736,2.736,0,0,0,1.308-4.379A83.494,83.494,0,0,0,97.616,77.064c-.884-1.77-1.869-4.04-3.014-6.664C86.533,51.887,69.782,13.466,25.586,8.3,22.064,5.919,12.834,0,8.2,0,2.454,0,0,2.456,0,8.2,0,11,2.277,14.273,5.991,19.38c1.815,2.5,4.854,6.675,4.945,7.962,0,4.475,5.19,18.962,10.41,25.159-.149.318-.3.63-.446.94-2.312,4.873-4.5,9.475-4.5,20.38,0,14.359,6.878,21.872,13.67,21.872,4.216,0,6.314-4.785,7.324-10.386,3.746,7.6,9.866,17.5,18.439,23.557a2.736,2.736,0,0,0,3.156-4.47c-13.6-9.6-20.78-31.2-20.852-31.423a2.734,2.734,0,0,0-5.332.849c0,7.508-1.431,15.507-2.734,16.4-3.943,0-8.2-6.272-8.2-16.4,0-9.673,1.751-13.363,3.968-18.036.414-.873.841-1.77,1.266-2.726a2.738,2.738,0,0,0-.713-3.183c-4.213-3.628-9.988-18.9-9.988-22.534,0-2.8-2.277-6.069-5.991-11.176C8.6,13.669,5.559,9.491,5.468,8.2c0-2.734,0-2.734,2.734-2.734,2.216,0,9.438,4.007,14.858,7.724a2.73,2.73,0,0,0,1.252.462C65.865,18.162,81.3,53.566,89.59,72.587c1.4,3.2,2.6,5.973,3.692,8a2.731,2.731,0,0,0,1.53,1.295c13.646,4.624,23.821,13.267,28.59,17.907-4.656,1.306-12.092,3.292-17.224,4.146a2.734,2.734,0,0,0-2.2,3.359c1.679,6.728,8.125,11.379,13.809,15.48,3.479,2.51,6.763,4.881,8.482,7.31a2.735,2.735,0,0,0,4.464-3.161ZM24.606,21.874a2.733,2.733,0,0,0,2.734,2.734,2.736,2.736,0,0,1,2.734,2.734,2.734,2.734,0,1,0,5.468,0,8.211,8.211,0,0,0-8.2-8.2A2.732,2.732,0,0,0,24.606,21.874Z" transform="translate(0)" fill="url(#linear-gradient)"/>
  </g>
</svg>
