<svg xmlns="http://www.w3.org/2000/svg" width="161.16" height="161.16" viewBox="0 0 161.16 161.16">
  <g id="netcore-logo" transform="translate(0.892)">
    <circle id="Ellipse_4" data-name="Ellipse 4" cx="79.473" cy="79.473" r="79.473" transform="translate(1.323)" fill="#d1d5db"/>
    <path id="Path_25" data-name="Path 25" d="M25.711,9A79.473,79.473,0,1,0,137.917,121.206Z" transform="translate(0 13.352)" fill="#fff" opacity="0.1"/>
    <path id="Path_26" data-name="Path 26" d="M9.492,41.478a3.353,3.353,0,0,1-2.484-1.043A3.427,3.427,0,0,1,5.99,37.952a3.477,3.477,0,0,1,1.018-2.484A3.328,3.328,0,0,1,9.492,34.4a3.4,3.4,0,0,1,2.484,1.068,3.452,3.452,0,0,1,1.043,2.484,3.4,3.4,0,0,1-1.043,2.484A3.427,3.427,0,0,1,9.492,41.478Z" transform="translate(10.209 51.033)" fill="#fff"/>
    <path id="Path_27" data-name="Path 27" d="M49.048,64.045H42.541L19.271,27.934A14.9,14.9,0,0,1,17.83,25.1h-.2a46.491,46.491,0,0,1,.248,6.209V64.045H12.59V18.77h6.879l22.65,35.465q1.416,2.21,1.838,3.03h.124a47.882,47.882,0,0,1-.323-6.656V18.77h5.29Z" transform="translate(20 27.846)" fill="#fff"/>
    <path id="Path_28" data-name="Path 28" d="M56.065,64.045H32V18.77H54.948v4.793H37.414v15.05H53.756v4.768H37.414v15.7H56.09Z" transform="translate(48.796 27.846)" fill="#fff"/>
    <path id="Path_29" data-name="Path 29" d="M74.8,23.563H61.634V64.045h-5.29V23.563H43.33V18.77H74.8Z" transform="translate(65.604 27.846)" fill="#fff"/>
    <path id="Path_30" data-name="Path 30" d="M35.428,61.51a12.244,12.244,0,0,1-5.762,1.217,9.288,9.288,0,0,1-7.128-2.856,10.58,10.58,0,0,1-2.682-7.451,11.077,11.077,0,0,1,3.005-8.1,10.232,10.232,0,0,1,7.649-3.08,12.244,12.244,0,0,1,4.967.869V44.6a9.934,9.934,0,0,0-4.967-1.242,7.6,7.6,0,0,0-5.836,2.484,9.04,9.04,0,0,0-2.235,6.407,8.618,8.618,0,0,0,2.086,6.085,7.1,7.1,0,0,0,5.489,2.26A10.282,10.282,0,0,0,35.453,59.2Z" transform="translate(30.764 61.177)" fill="#f2f2f2"/>
    <path id="Path_31" data-name="Path 31" d="M34.55,59.286a6.9,6.9,0,0,1-5.29-2.21A7.724,7.724,0,0,1,27.3,51.538a8.047,8.047,0,0,1,2.061-5.861A7.451,7.451,0,0,1,34.9,43.566a6.681,6.681,0,0,1,5.191,2.061,8.146,8.146,0,0,1,1.863,5.687,8,8,0,0,1-2.012,5.712,7.053,7.053,0,0,1-5.389,2.26ZM34.724,45.7A4.545,4.545,0,0,0,31.1,47.266a6.432,6.432,0,0,0-1.341,4.321A6.085,6.085,0,0,0,31.1,55.76a4.6,4.6,0,0,0,3.626,1.54,4.371,4.371,0,0,0,3.551-1.49,6.507,6.507,0,0,0,1.242-4.272,6.606,6.606,0,0,0-1.242-4.3,4.346,4.346,0,0,0-3.551-1.54Z" transform="translate(41.8 64.617)" fill="#f2f2f2"/>
    <path id="Path_32" data-name="Path 32" d="M42.518,46.31a2.931,2.931,0,0,0-1.813-.472,3.055,3.055,0,0,0-2.484,1.44A6.656,6.656,0,0,0,37.2,51.2v7.6H34.72V43.9H37.2v3.1h0a5.216,5.216,0,0,1,1.565-2.484,3.551,3.551,0,0,1,2.335-.869,3.9,3.9,0,0,1,1.416.2Z" transform="translate(52.831 64.754)" fill="#f2f2f2"/>
    <path id="Path_33" data-name="Path 33" d="M51.533,52.049H41.027a5.563,5.563,0,0,0,1.267,3.825,4.619,4.619,0,0,0,3.527,1.341,7.451,7.451,0,0,0,4.619-1.664v2.235A8.643,8.643,0,0,1,45.249,59.2a6.308,6.308,0,0,1-4.967-2.036,8.32,8.32,0,0,1-1.813-5.712,8.146,8.146,0,0,1,1.962-5.662A6.333,6.333,0,0,1,45.4,43.605a5.613,5.613,0,0,1,4.52,1.887,7.9,7.9,0,0,1,1.589,5.265Zm-2.484-2.012a4.967,4.967,0,0,0-.993-3.2,3.4,3.4,0,0,0-2.732-1.142,3.849,3.849,0,0,0-2.856,1.217A5.489,5.489,0,0,0,41,50.062Z" transform="translate(58.37 64.677)" fill="#f2f2f2"/>
  </g>
</svg>
