<svg id="nodejs-logo" xmlns="http://www.w3.org/2000/svg" width="132" height="148.739" viewBox="0 0 132 148.739">
  <path id="Path_23" data-name="Path 23" d="M66,148.739a11.982,11.982,0,0,1-5.739-1.5l-18.174-10.8c-2.733-1.5-1.366-2.05-.547-2.323a33.089,33.089,0,0,0,8.2-3.69,1.257,1.257,0,0,1,1.366.137L65.044,138.9a1.737,1.737,0,0,0,1.64,0L121.2,107.336a1.57,1.57,0,0,0,.82-1.5V42.838a1.57,1.57,0,0,0-.82-1.5L66.683,9.907a1.736,1.736,0,0,0-1.64,0L10.522,41.335a1.715,1.715,0,0,0-.82,1.5v62.994a1.714,1.714,0,0,0,.82,1.5l14.894,8.608c8.062,4.1,13.118-.683,13.118-5.466V48.3a1.662,1.662,0,0,1,1.64-1.64h6.969a1.662,1.662,0,0,1,1.64,1.64v62.174c0,10.8-5.876,17.081-16.124,17.081-3.143,0-5.6,0-12.571-3.416l-14.348-8.2A11.532,11.532,0,0,1,0,105.969V42.975A11.532,11.532,0,0,1,5.739,33L60.261,1.435a12.2,12.2,0,0,1,11.478,0L126.261,33A11.532,11.532,0,0,1,132,42.975v62.994a11.532,11.532,0,0,1-5.739,9.975L71.739,147.509A13.985,13.985,0,0,1,66,148.739Zm16.807-43.317c-23.913,0-28.832-10.931-28.832-20.223a1.662,1.662,0,0,1,1.64-1.64h7.106a1.4,1.4,0,0,1,1.5,1.366c1.093,7.242,4.236,10.8,18.72,10.8,11.478,0,16.4-2.6,16.4-8.746,0-3.553-1.367-6.149-19.267-7.926-14.894-1.5-24.186-4.782-24.186-16.671,0-11.068,9.292-17.627,24.87-17.627,17.491,0,26.1,6.012,27.193,19.13a2.2,2.2,0,0,1-.41,1.23,1.687,1.687,0,0,1-1.093.547H99.342a1.6,1.6,0,0,1-1.5-1.23c-1.64-7.515-5.876-9.975-17.081-9.975-12.571,0-14.075,4.372-14.075,7.652,0,3.963,1.776,5.193,18.72,7.379,16.808,2.186,24.733,5.329,24.733,17.081-.137,12.025-9.975,18.857-27.329,18.857Z" transform="translate(0)" fill="#d1d5db"/>
</svg>
