<svg xmlns="http://www.w3.org/2000/svg" width="124.922" height="111.248" viewBox="0 0 124.922 111.248">
  <g id="react-logo" transform="translate(-175.7 -78)">
    <path id="Path_5" data-name="Path 5" d="M300.622,133.637c0-8.275-10.363-16.118-26.252-20.982,3.667-16.194,2.037-29.079-5.144-33.2a11.164,11.164,0,0,0-5.7-1.426V83.7a5.9,5.9,0,0,1,2.9.662c3.463,1.986,4.965,9.549,3.794,19.276-.28,2.394-.738,4.914-1.3,7.486a123.4,123.4,0,0,0-16.169-2.775A124.21,124.21,0,0,0,242.159,95.62c8.3-7.715,16.093-11.942,21.389-11.942V78c-7,0-16.169,4.991-25.438,13.648C228.841,83.042,219.675,78.1,212.672,78.1V83.78c5.271,0,13.088,4.2,21.389,11.866a120.264,120.264,0,0,0-10.516,12.706,118.906,118.906,0,0,0-16.195,2.8c-.586-2.546-1.019-5.016-1.324-7.384-1.2-9.727.28-17.289,3.718-19.3a5.667,5.667,0,0,1,2.928-.662V78.127a11.354,11.354,0,0,0-5.755,1.426c-7.155,4.125-8.759,16.984-5.067,33.127-15.838,4.889-26.151,12.706-26.151,20.956,0,8.275,10.363,16.118,26.252,20.982-3.667,16.194-2.037,29.079,5.144,33.2a11.193,11.193,0,0,0,5.729,1.426c7,0,16.169-4.991,25.438-13.648,9.269,8.607,18.435,13.546,25.438,13.546a11.354,11.354,0,0,0,5.755-1.426c7.155-4.125,8.759-16.984,5.067-33.127,15.787-4.863,26.1-12.706,26.1-20.956Zm-33.153-16.984c-.942,3.285-2.113,6.671-3.437,10.058-1.044-2.037-2.139-4.074-3.336-6.111-1.171-2.037-2.419-4.023-3.667-5.958C260.645,115.176,264.133,115.838,267.469,116.653Zm-11.662,27.118c-1.986,3.438-4.023,6.7-6.137,9.727-3.794.331-7.639.509-11.509.509-3.845,0-7.69-.178-11.458-.484q-3.17-4.545-6.162-9.676-2.9-5-5.3-10.134c1.579-3.412,3.361-6.824,5.271-10.16,1.986-3.438,4.023-6.7,6.137-9.727,3.794-.331,7.639-.509,11.509-.509,3.845,0,7.69.178,11.458.484q3.17,4.545,6.162,9.676,2.9,5,5.3,10.134c-1.6,3.412-3.361,6.824-5.271,10.16Zm8.225-3.31c1.375,3.412,2.546,6.824,3.514,10.134-3.336.815-6.85,1.5-10.491,2.037,1.248-1.961,2.5-3.972,3.667-6.035C261.892,144.56,262.987,142.5,264.031,140.461Zm-25.82,27.169a104.974,104.974,0,0,1-7.079-8.148c2.292.1,4.634.178,7,.178,2.394,0,4.762-.051,7.079-.178A99.387,99.387,0,0,1,238.212,167.63Zm-18.945-15c-3.616-.535-7.1-1.2-10.44-2.012.942-3.285,2.113-6.671,3.438-10.058,1.044,2.037,2.139,4.074,3.336,6.111S218.02,150.7,219.267,152.632Zm18.817-52.989a104.977,104.977,0,0,1,7.079,8.148c-2.292-.1-4.634-.178-7-.178-2.394,0-4.762.051-7.079.178A99.39,99.39,0,0,1,238.085,99.644Zm-18.843,15c-1.248,1.961-2.5,3.972-3.667,6.035-1.171,2.037-2.266,4.074-3.31,6.111-1.375-3.412-2.546-6.824-3.514-10.134C212.087,115.864,215.6,115.176,219.242,114.641ZM196.2,146.521c-9.014-3.845-14.845-8.887-14.845-12.884s5.831-9.065,14.845-12.884c2.19-.942,4.583-1.782,7.053-2.572a122.3,122.3,0,0,0,5.729,15.507,120.573,120.573,0,0,0-5.653,15.431c-2.521-.789-4.914-1.655-7.13-2.6Zm13.7,36.387c-3.463-1.986-4.965-9.549-3.794-19.276.28-2.394.738-4.914,1.3-7.486a123.4,123.4,0,0,0,16.169,2.775,124.205,124.205,0,0,0,10.593,12.732c-8.3,7.715-16.093,11.942-21.389,11.942a6.077,6.077,0,0,1-2.877-.688Zm60.4-19.4c1.2,9.727-.28,17.289-3.718,19.3a5.667,5.667,0,0,1-2.928.662c-5.271,0-13.088-4.2-21.389-11.866A120.263,120.263,0,0,0,252.777,158.9a118.9,118.9,0,0,0,16.194-2.8A71.286,71.286,0,0,1,270.3,163.5Zm9.8-16.984c-2.19.942-4.583,1.782-7.053,2.572a122.3,122.3,0,0,0-5.729-15.507,120.573,120.573,0,0,0,5.653-15.431c2.521.789,4.914,1.655,7.155,2.6,9.014,3.845,14.845,8.887,14.845,12.884C294.943,137.634,289.112,142.7,280.1,146.521Z" fill="#d1d5db"/>
    <circle id="Ellipse_2" data-name="Ellipse 2" cx="11.637" cy="11.637" r="11.637" transform="translate(226.499 122)" fill="#d1d5db"/>
  </g>
</svg>
