<svg xmlns="http://www.w3.org/2000/svg" width="172.939" height="129.631" viewBox="0 0 172.939 129.631">
  <path id="sass-logo" d="M148.759,74.678a35.629,35.629,0,0,0-15.674,3.649c-1.621-3.209-3.243-6.013-3.513-8.107a22.423,22.423,0,0,1-.3-6.824c.371-2.905,2.06-7.027,2.06-7.364-.034-.3-.372-1.79-3.851-1.824s-6.486.676-6.824,1.588a38.8,38.8,0,0,0-1.453,5.168c-.608,3.175-6.959,14.424-10.573,20.336a20.747,20.747,0,0,1-2.4-5.946,22.421,22.421,0,0,1-.3-6.823c.372-2.905,2.061-7.026,2.061-7.364-.034-.3-.372-1.79-3.851-1.824s-6.486.676-6.824,1.588S96.6,64,95.859,66.1c-.71,2.094-9.155,20.876-11.35,25.774-1.115,2.5-2.094,4.493-2.8,5.844s-.034.1-.1.236c-.608,1.149-.946,1.79-.946,1.79v.034c-.473.844-.98,1.655-1.216,1.655-.169,0-.507-2.263.068-5.371,1.25-6.52,4.29-16.687,4.257-17.059,0-.169.574-1.96-1.96-2.871a3.079,3.079,0,0,0-3.547.608c-.2,0-.372.54-.372.54s2.736-11.451-5.236-11.451c-5,0-11.891,5.439-15.3,10.4-2.162,1.182-6.756,3.682-11.62,6.351-1.858,1.013-3.783,2.094-5.608,3.074l-.371-.406c-9.661-10.3-27.531-17.6-26.788-31.449.27-5.033,2.027-18.309,34.321-34.388,26.45-13.174,47.63-9.56,51.312-1.52C103.831,29.379,87.279,50.728,59.782,53.8,49.31,54.984,43.8,50.931,42.419,49.411c-1.453-1.588-1.655-1.655-2.2-1.351-.878.473-.338,1.892,0,2.736.811,2.128,4.189,5.912,9.931,7.8,5.033,1.655,17.329,2.567,32.192-3.175C99,48.972,112.006,31.068,108.189,16.1,104.3.869,79.037-4.131,55.154,4.348,40.932,9.415,25.529,17.32,14.449,27.69,1.275,39.986-.82,50.728.059,55.187c3.074,15.91,25,26.281,33.78,33.949-.439.236-.845.473-1.216.676-4.391,2.162-21.113,10.911-25.3,20.166C2.592,120.45,8.064,127.983,11.713,129,23,132.138,34.548,126.5,40.8,117.207c6.215-9.29,5.472-21.349,2.6-26.855l-.1-.2,3.446-2.027c2.23-1.317,4.426-2.534,6.351-3.581A42.059,42.059,0,0,0,50.83,96.027c-.473,5.946,1.959,13.647,5.168,16.687a5.719,5.719,0,0,0,4.155,1.351c3.716,0,5.4-3.074,7.263-6.756,2.3-4.493,4.324-9.695,4.324-9.695S69.206,111.7,76.131,111.7c2.534,0,5.067-3.277,6.216-4.966v.034s.068-.1.2-.338q.213-.314.405-.641v-.068c1.013-1.757,3.277-5.776,6.655-12.431,4.357-8.58,8.546-19.322,8.546-19.322a61.657,61.657,0,0,0,1.655,6.959c.743,2.568,2.364,5.371,3.614,8.107-1.013,1.419-1.621,2.23-1.621,2.23l.034.034c-.81,1.081-1.723,2.23-2.668,3.378-3.446,4.121-7.567,8.817-8.107,10.168-.642,1.587-.507,2.77.743,3.716.912.676,2.534.81,4.256.676a18.96,18.96,0,0,0,6.351-1.453,21.994,21.994,0,0,0,5.472-2.871,12.183,12.183,0,0,0,5.236-10.776,21.666,21.666,0,0,0-1.993-7.6c.3-.439.608-.879.912-1.351A142.593,142.593,0,0,0,121.5,68.8a61.656,61.656,0,0,0,1.655,6.959,48.785,48.785,0,0,0,3.074,6.959c-5,4.087-8.141,8.817-9.222,11.924-1.993,5.743-.439,8.344,2.5,8.952a8.992,8.992,0,0,0,4.628-.946,20.971,20.971,0,0,0,5.844-3.006c3.378-2.5,6.621-5.979,6.452-10.675a20.463,20.463,0,0,0-1.453-6.317,32.909,32.909,0,0,1,16.755-1.925c15.032,1.757,18,11.147,17.431,15.066s-3.716,6.08-4.763,6.756c-1.047.642-1.385.879-1.284,1.351.135.71.608.676,1.52.541,1.25-.2,7.9-3.209,8.175-10.438.405-9.291-8.411-19.425-24.051-19.324ZM32.825,113.762c-4.966,5.439-11.958,7.5-14.931,5.743-3.209-1.858-1.96-9.864,4.155-15.64a79.482,79.482,0,0,1,11.722-8.749c.709-.439,1.79-1.081,3.074-1.858a3.6,3.6,0,0,1,.338-.2c.236-.135.507-.3.777-.473a21.547,21.547,0,0,1-5.135,21.18ZM69.139,89.069c-1.723,4.223-5.371,15.066-7.567,14.458-1.892-.507-3.04-8.715-.372-16.822A37.555,37.555,0,0,1,67.112,75.86c2.737-3.04,5.709-4.054,6.452-2.8C74.442,74.678,70.22,86.434,69.139,89.069ZM99.1,103.391c-.743.372-1.419.642-1.723.439-.236-.135.3-.642.3-.642s3.75-4.02,5.236-5.878c.845-1.081,1.858-2.33,2.939-3.75v.405c0,4.864-4.661,8.107-6.756,9.424Zm23.105-5.27c-.54-.405-.473-1.655,1.351-5.574a20.886,20.886,0,0,1,5.135-6.621,8.356,8.356,0,0,1,.507,2.905C129.166,94.913,124.842,97.176,122.207,98.122Z" transform="translate(0.116 -0.241)" fill="#d1d5db"/>
</svg>
