<svg id="typescript-logo" xmlns="http://www.w3.org/2000/svg" width="111.623" height="111.623" viewBox="0 0 111.623 111.623">
  <path id="Path_6" data-name="Path 6" d="M0,55.812V0H111.623V111.623H0" fill="#d1d5db"/>
  <path id="Path_7" data-name="Path 7" d="M87.7,187.329v4.629h14.767v42.029h10.479V191.958h14.767v-4.544a35.394,35.394,0,0,0-.114-4.686c0-.085-9-.114-19.935-.114l-19.879.085v4.657l-.085-.028Zm66.366-4.742a13.75,13.75,0,0,1,7.1,4.061,17.868,17.868,0,0,1,2.726,3.635c0,.17-4.913,3.493-7.895,5.339-.114.085-.568-.4-1.022-1.136a6.494,6.494,0,0,0-5.339-3.181c-3.408-.227-5.68,1.562-5.68,4.544a4.487,4.487,0,0,0,.511,2.158c.767,1.562,2.187,2.5,6.588,4.43,8.122,3.493,11.643,5.793,13.773,9.087a16.546,16.546,0,0,1,1.335,13.83c-1.817,4.742-6.248,7.951-12.58,9a35.426,35.426,0,0,1-8.661-.085,21.439,21.439,0,0,1-11.558-6.049,20.3,20.3,0,0,1-2.953-4.373l1.079-.682,4.26-2.471,3.209-1.874.738.994a15.453,15.453,0,0,0,4.26,4.146c3.692,1.9,8.633,1.647,11.075-.568a4.256,4.256,0,0,0,1.505-3.408,4.382,4.382,0,0,0-.852-2.9c-.909-1.249-2.726-2.272-7.838-4.544-5.878-2.5-8.377-4.089-10.706-6.532a16.132,16.132,0,0,1-3.124-5.68,21.748,21.748,0,0,1-.17-7.3c1.221-5.68,5.509-9.655,11.643-10.791a27.524,27.524,0,0,1,8.633.284l-.057.057Z" transform="translate(-64.764 -132.303)" fill="#fff"/>
</svg>
